<svg width="330" height="200" viewBox="0 0 330 200" fill="none" xmlns="http://www.w3.org/2000/svg">
<circle cx="2.5" cy="2.5" r="2.5" fill="#E5E3EC"/>
<circle cx="2.5" cy="67.5" r="2.5" fill="#E5E3EC"/>
<circle cx="2.5" cy="132.5" r="2.5" fill="#E5E3EC"/>
<circle cx="2.5" cy="197.5" r="2.5" fill="#E5E3EC"/>
<circle cx="67.5" cy="2.5" r="2.5" fill="#E5E3EC"/>
<circle cx="67.5" cy="67.5" r="2.5" fill="#E5E3EC"/>
<circle cx="67.5" cy="132.5" r="2.5" fill="#E5E3EC"/>
<circle cx="67.5" cy="197.5" r="2.5" fill="#E5E3EC"/>
<circle cx="132.5" cy="2.5" r="2.5" fill="#E5E3EC"/>
<circle cx="132.5" cy="67.5" r="2.5" fill="#E5E3EC"/>
<circle cx="132.5" cy="132.5" r="2.5" fill="#E5E3EC"/>
<circle cx="132.5" cy="197.5" r="2.5" fill="#E5E3EC"/>
<circle cx="197.5" cy="2.5" r="2.5" fill="#E5E3EC"/>
<circle cx="197.5" cy="67.5" r="2.5" fill="#E5E3EC"/>
<circle cx="197.5" cy="132.5" r="2.5" fill="#E5E3EC"/>
<circle cx="197.5" cy="197.5" r="2.5" fill="#E5E3EC"/>
<circle cx="262.5" cy="2.5" r="2.5" fill="#E5E3EC"/>
<circle cx="262.5" cy="67.5" r="2.5" fill="#E5E3EC"/>
<circle cx="262.5" cy="132.5" r="2.5" fill="#E5E3EC"/>
<circle cx="262.5" cy="197.5" r="2.5" fill="#E5E3EC"/>
<circle cx="327.5" cy="2.5" r="2.5" fill="#E5E3EC"/>
<circle cx="327.5" cy="67.5" r="2.5" fill="#E5E3EC"/>
<circle cx="327.5" cy="132.5" r="2.5" fill="#E5E3EC"/>
<circle cx="327.5" cy="197.5" r="2.5" fill="#E5E3EC"/>
</svg>
