<svg width="609" height="477" viewBox="0 0 609 477" fill="none" xmlns="http://www.w3.org/2000/svg">
<ellipse cx="74.5" cy="110.932" rx="74.5" ry="81.0608" fill="#443D5E" fill-opacity="0.03"/>
<g filter="url(#filter0_b_204_2)">
<rect x="48" y="89.715" width="560" height="386.263" rx="15" fill="url(#paint0_linear_204_2)"/>
<rect x="48" y="89.715" width="560" height="386.263" rx="15" stroke="white" stroke-width="2"/>
</g>
<rect x="500" y="135.414" width="8" height="233.934" rx="4" fill="#C0BBD2"/>
<rect x="500" y="180.024" width="8" height="189.323" rx="4" fill="#443D5E"/>
<ellipse cx="504" cy="180.024" rx="9" ry="9.79258" fill="#443D5E"/>
<path d="M464.657 391.393H466.516V400.159C466.516 400.951 466.359 401.63 466.045 402.193C465.735 402.756 465.299 403.187 464.735 403.485C464.172 403.779 463.512 403.926 462.755 403.926C462.059 403.926 461.433 403.799 460.878 403.545C460.326 403.292 459.89 402.923 459.568 402.441C459.25 401.954 459.091 401.362 459.091 400.666H460.944C460.944 401.008 461.023 401.304 461.18 401.553C461.341 401.803 461.56 401.998 461.838 402.139C462.119 402.276 462.441 402.344 462.804 402.344C463.198 402.344 463.532 402.261 463.806 402.096C464.083 401.927 464.295 401.68 464.44 401.354C464.584 401.028 464.657 400.629 464.657 400.159V391.393ZM471.785 403.962C471.197 403.962 470.666 403.853 470.191 403.636C469.716 403.414 469.34 403.095 469.062 402.676C468.789 402.257 468.652 401.744 468.652 401.137C468.652 400.613 468.752 400.183 468.954 399.845C469.155 399.507 469.427 399.239 469.769 399.042C470.111 398.845 470.493 398.696 470.916 398.595C471.338 398.494 471.769 398.418 472.208 398.366C472.763 398.301 473.214 398.249 473.56 398.209C473.906 398.164 474.157 398.094 474.314 397.997C474.471 397.901 474.55 397.744 474.55 397.526V397.484C474.55 396.957 474.401 396.548 474.103 396.259C473.809 395.969 473.371 395.824 472.787 395.824C472.179 395.824 471.7 395.959 471.35 396.229C471.004 396.494 470.765 396.79 470.632 397.116L468.936 396.73C469.137 396.166 469.431 395.711 469.817 395.365C470.207 395.015 470.656 394.762 471.163 394.605C471.67 394.444 472.204 394.363 472.763 394.363C473.133 394.363 473.526 394.407 473.94 394.496C474.359 394.58 474.749 394.737 475.111 394.967C475.478 395.196 475.777 395.524 476.011 395.951C476.244 396.373 476.361 396.923 476.361 397.599V403.757H474.598V402.489H474.526C474.409 402.722 474.234 402.952 474.001 403.177C473.767 403.402 473.467 403.59 473.101 403.738C472.735 403.887 472.296 403.962 471.785 403.962ZM472.177 402.513C472.676 402.513 473.103 402.414 473.457 402.217C473.815 402.02 474.087 401.762 474.272 401.444C474.461 401.122 474.556 400.778 474.556 400.412V399.217C474.492 399.281 474.367 399.342 474.182 399.398C474.001 399.45 473.793 399.497 473.56 399.537C473.326 399.573 473.099 399.607 472.878 399.639C472.656 399.668 472.471 399.692 472.322 399.712C471.972 399.756 471.652 399.831 471.362 399.935C471.077 400.04 470.847 400.191 470.674 400.388C470.505 400.581 470.421 400.839 470.421 401.161C470.421 401.607 470.586 401.946 470.916 402.175C471.246 402.4 471.666 402.513 472.177 402.513ZM486.366 394.484L483.003 403.757H481.071L477.703 394.484H479.641L481.989 401.62H482.085L484.428 394.484H486.366ZM490.495 403.962C489.907 403.962 489.376 403.853 488.901 403.636C488.426 403.414 488.05 403.095 487.772 402.676C487.499 402.257 487.362 401.744 487.362 401.137C487.362 400.613 487.462 400.183 487.664 399.845C487.865 399.507 488.137 399.239 488.479 399.042C488.821 398.845 489.203 398.696 489.626 398.595C490.048 398.494 490.479 398.418 490.918 398.366C491.473 398.301 491.924 398.249 492.27 398.209C492.616 398.164 492.867 398.094 493.024 397.997C493.181 397.901 493.26 397.744 493.26 397.526V397.484C493.26 396.957 493.111 396.548 492.813 396.259C492.519 395.969 492.081 395.824 491.497 395.824C490.889 395.824 490.41 395.959 490.06 396.229C489.714 396.494 489.475 396.79 489.342 397.116L487.646 396.73C487.847 396.166 488.141 395.711 488.527 395.365C488.917 395.015 489.366 394.762 489.873 394.605C490.38 394.444 490.914 394.363 491.473 394.363C491.843 394.363 492.236 394.407 492.65 394.496C493.069 394.58 493.459 394.737 493.821 394.967C494.188 395.196 494.487 395.524 494.721 395.951C494.954 396.373 495.071 396.923 495.071 397.599V403.757H493.308V402.489H493.236C493.119 402.722 492.944 402.952 492.71 403.177C492.477 403.402 492.177 403.59 491.811 403.738C491.445 403.887 491.006 403.962 490.495 403.962ZM490.887 402.513C491.386 402.513 491.813 402.414 492.167 402.217C492.525 402.02 492.797 401.762 492.982 401.444C493.171 401.122 493.266 400.778 493.266 400.412V399.217C493.201 399.281 493.077 399.342 492.892 399.398C492.71 399.45 492.503 399.497 492.27 399.537C492.036 399.573 491.809 399.607 491.588 399.639C491.366 399.668 491.181 399.692 491.032 399.712C490.682 399.756 490.362 399.831 490.072 399.935C489.787 400.04 489.557 400.191 489.384 400.388C489.215 400.581 489.131 400.839 489.131 401.161C489.131 401.607 489.296 401.946 489.626 402.175C489.956 402.4 490.376 402.513 490.887 402.513ZM502.184 390.813L498.2 405.616H496.588L500.572 390.813H502.184ZM503.862 403.757V391.393H505.728V397.297H505.879L511.064 391.393H513.413L508.426 396.959L513.431 403.757H511.185L507.189 398.233L505.728 399.911V403.757H503.862ZM518.232 403.944C517.362 403.944 516.604 403.745 515.956 403.346C515.308 402.948 514.805 402.39 514.446 401.674C514.088 400.957 513.909 400.12 513.909 399.162C513.909 398.201 514.088 397.359 514.446 396.639C514.805 395.919 515.308 395.359 515.956 394.961C516.604 394.562 517.362 394.363 518.232 394.363C519.101 394.363 519.86 394.562 520.508 394.961C521.156 395.359 521.659 395.919 522.017 396.639C522.375 397.359 522.554 398.201 522.554 399.162C522.554 400.12 522.375 400.957 522.017 401.674C521.659 402.39 521.156 402.948 520.508 403.346C519.86 403.745 519.101 403.944 518.232 403.944ZM518.238 402.428C518.801 402.428 519.268 402.28 519.638 401.982C520.008 401.684 520.282 401.287 520.459 400.792C520.64 400.297 520.731 399.752 520.731 399.156C520.731 398.565 520.64 398.022 520.459 397.526C520.282 397.027 520.008 396.627 519.638 396.325C519.268 396.023 518.801 395.872 518.238 395.872C517.67 395.872 517.199 396.023 516.825 396.325C516.455 396.627 516.179 397.027 515.998 397.526C515.821 398.022 515.732 398.565 515.732 399.156C515.732 399.752 515.821 400.297 515.998 400.792C516.179 401.287 516.455 401.684 516.825 401.982C517.199 402.28 517.67 402.428 518.238 402.428ZM528.897 394.484V395.933H523.832V394.484H528.897ZM525.191 392.262H526.996V401.034C526.996 401.384 527.048 401.648 527.153 401.825C527.257 401.998 527.392 402.117 527.557 402.181C527.726 402.241 527.909 402.272 528.107 402.272C528.251 402.272 528.378 402.261 528.487 402.241C528.596 402.221 528.68 402.205 528.74 402.193L529.066 403.684C528.962 403.724 528.813 403.765 528.62 403.805C528.426 403.849 528.185 403.873 527.895 403.877C527.42 403.885 526.978 403.801 526.567 403.624C526.157 403.447 525.825 403.173 525.571 402.803C525.317 402.432 525.191 401.968 525.191 401.408V392.262ZM532.898 391.393V403.757H531.093V391.393H532.898ZM535.327 403.757V394.484H537.132V403.757H535.327ZM536.238 393.053C535.924 393.053 535.655 392.948 535.429 392.739C535.208 392.526 535.097 392.272 535.097 391.979C535.097 391.681 535.208 391.427 535.429 391.218C535.655 391.005 535.924 390.898 536.238 390.898C536.552 390.898 536.82 391.005 537.041 391.218C537.267 391.427 537.379 391.681 537.379 391.979C537.379 392.272 537.267 392.526 537.041 392.739C536.82 392.948 536.552 393.053 536.238 393.053ZM541.365 398.251V403.757H539.56V394.484H541.293V395.993H541.407C541.621 395.502 541.955 395.108 542.41 394.81C542.868 394.512 543.446 394.363 544.142 394.363C544.774 394.363 545.327 394.496 545.802 394.762C546.277 395.023 546.645 395.414 546.907 395.933C547.169 396.452 547.299 397.094 547.299 397.859V403.757H545.494V398.076C545.494 397.404 545.319 396.879 544.969 396.5C544.619 396.118 544.138 395.927 543.526 395.927C543.108 395.927 542.736 396.017 542.41 396.198C542.088 396.379 541.832 396.645 541.643 396.995C541.458 397.341 541.365 397.76 541.365 398.251Z" fill="black" fill-opacity="0.8"/>
<path d="M483.274 426.958L487.503 418.593V418.519H482.628V417.504H488.685V418.575L484.474 426.958H483.274ZM493.243 427.088C492.609 427.088 492.049 426.975 491.563 426.751C491.08 426.523 490.703 426.21 490.432 425.813C490.161 425.413 490.027 424.958 490.03 424.447C490.027 424.047 490.106 423.677 490.266 423.339C490.426 422.997 490.644 422.713 490.921 422.485C491.201 422.254 491.514 422.108 491.858 422.046V421.991C491.406 421.874 491.046 421.62 490.778 421.229C490.51 420.835 490.378 420.387 490.381 419.886C490.378 419.406 490.5 418.976 490.746 418.598C490.992 418.219 491.331 417.921 491.762 417.702C492.195 417.484 492.689 417.374 493.243 417.374C493.791 417.374 494.281 417.484 494.711 417.702C495.142 417.921 495.481 418.219 495.727 418.598C495.976 418.976 496.103 419.406 496.106 419.886C496.103 420.387 495.966 420.835 495.695 421.229C495.427 421.62 495.072 421.874 494.628 421.991V422.046C494.97 422.108 495.278 422.254 495.552 422.485C495.826 422.713 496.044 422.997 496.207 423.339C496.37 423.677 496.453 424.047 496.456 424.447C496.453 424.958 496.315 425.413 496.041 425.813C495.77 426.21 495.393 426.523 494.91 426.751C494.43 426.975 493.874 427.088 493.243 427.088ZM493.243 426.072C493.671 426.072 494.041 426.003 494.351 425.864C494.662 425.726 494.902 425.53 495.072 425.278C495.241 425.025 495.327 424.73 495.33 424.391C495.327 424.034 495.235 423.719 495.053 423.445C494.872 423.171 494.624 422.956 494.31 422.799C493.999 422.642 493.644 422.563 493.243 422.563C492.84 422.563 492.48 422.642 492.163 422.799C491.849 422.956 491.602 423.171 491.42 423.445C491.241 423.719 491.154 424.034 491.157 424.391C491.154 424.73 491.235 425.025 491.401 425.278C491.571 425.53 491.812 425.726 492.126 425.864C492.44 426.003 492.813 426.072 493.243 426.072ZM493.243 421.585C493.582 421.585 493.882 421.517 494.144 421.382C494.408 421.246 494.616 421.057 494.767 420.814C494.918 420.571 494.995 420.286 494.998 419.96C494.995 419.64 494.919 419.361 494.771 419.124C494.624 418.884 494.419 418.699 494.157 418.57C493.896 418.438 493.591 418.372 493.243 418.372C492.89 418.372 492.58 418.438 492.316 418.57C492.051 418.699 491.846 418.884 491.702 419.124C491.557 419.361 491.486 419.64 491.489 419.96C491.486 420.286 491.558 420.571 491.706 420.814C491.857 421.057 492.065 421.246 492.329 421.382C492.594 421.517 492.899 421.585 493.243 421.585ZM503.045 425.186V424.687C503.045 424.342 503.116 424.027 503.258 423.741C503.402 423.451 503.612 423.22 503.886 423.048C504.163 422.873 504.498 422.785 504.892 422.785C505.292 422.785 505.628 422.873 505.898 423.048C506.169 423.22 506.374 423.451 506.512 423.741C506.651 424.027 506.72 424.342 506.72 424.687V425.186C506.72 425.53 506.649 425.847 506.508 426.137C506.369 426.423 506.163 426.654 505.889 426.829C505.618 427.001 505.286 427.088 504.892 427.088C504.492 427.088 504.155 427.001 503.881 426.829C503.607 426.654 503.399 426.423 503.258 426.137C503.116 425.847 503.045 425.53 503.045 425.186ZM503.987 424.687V425.186C503.987 425.472 504.055 425.729 504.19 425.956C504.326 426.181 504.56 426.293 504.892 426.293C505.215 426.293 505.443 426.181 505.575 425.956C505.711 425.729 505.778 425.472 505.778 425.186V424.687C505.778 424.401 505.714 424.145 505.584 423.921C505.455 423.693 505.224 423.579 504.892 423.579C504.569 423.579 504.336 423.693 504.195 423.921C504.056 424.145 503.987 424.401 503.987 424.687ZM498.337 419.775V419.276C498.337 418.932 498.407 418.616 498.549 418.33C498.694 418.041 498.903 417.81 499.177 417.638C499.454 417.462 499.789 417.374 500.183 417.374C500.583 417.374 500.919 417.462 501.19 417.638C501.46 417.81 501.665 418.041 501.804 418.33C501.942 418.616 502.011 418.932 502.011 419.276V419.775C502.011 420.12 501.94 420.437 501.799 420.726C501.66 421.012 501.454 421.243 501.18 421.418C500.909 421.591 500.577 421.677 500.183 421.677C499.783 421.677 499.446 421.591 499.172 421.418C498.898 421.243 498.69 421.012 498.549 420.726C498.407 420.437 498.337 420.12 498.337 419.775ZM499.278 419.276V419.775C499.278 420.061 499.346 420.318 499.481 420.546C499.617 420.771 499.851 420.883 500.183 420.883C500.506 420.883 500.734 420.771 500.866 420.546C501.002 420.318 501.07 420.061 501.07 419.775V419.276C501.07 418.99 501.005 418.735 500.876 418.51C500.746 418.282 500.516 418.168 500.183 418.168C499.86 418.168 499.628 418.282 499.486 418.51C499.348 418.735 499.278 418.99 499.278 419.276ZM498.687 426.958L505.187 417.504H506.24L499.74 426.958H498.687Z" fill="black" fill-opacity="0.6"/>
<path fill-rule="evenodd" clip-rule="evenodd" d="M512.147 9.02692C511.977 8.83304 511.997 8.53835 512.191 8.36871L517.191 4.01511C517.368 3.86122 517.632 3.86122 517.809 4.01511L522.809 8.36871C523.004 8.53835 523.023 8.83304 522.853 9.02691C522.682 9.22079 522.386 9.24044 522.191 9.0708L517.969 5.39412L517.969 14.3172C517.969 14.5749 517.759 14.7837 517.5 14.7837C517.241 14.7837 517.031 14.5749 517.031 14.3172L517.031 5.39412L512.809 9.0708C512.614 9.24044 512.318 9.22079 512.147 9.02692Z" fill="#6CF24A"/>
<rect x="359" y="135.414" width="8" height="233.934" rx="4" fill="#C0BBD2"/>
<rect x="359" y="154.999" width="8" height="214.349" rx="4" fill="#443D5E"/>
<ellipse cx="363" cy="156.087" rx="9" ry="9.79258" fill="#443D5E"/>
<path d="M340.624 403.757V391.393H345.031C345.989 391.393 346.784 391.558 347.416 391.888C348.052 392.218 348.527 392.675 348.841 393.258C349.155 393.838 349.312 394.508 349.312 395.269C349.312 396.025 349.153 396.691 348.835 397.267C348.521 397.838 348.046 398.283 347.41 398.601C346.778 398.919 345.983 399.078 345.025 399.078H341.687V397.472H344.856C345.46 397.472 345.951 397.386 346.329 397.213C346.712 397.039 346.991 396.788 347.168 396.458C347.346 396.128 347.434 395.731 347.434 395.269C347.434 394.802 347.344 394.397 347.162 394.055C346.985 393.713 346.706 393.452 346.323 393.27C345.945 393.085 345.448 392.993 344.832 392.993H342.49V403.757H340.624ZM346.728 398.178L349.782 403.757H347.657L344.663 398.178H346.728ZM355.317 403.944C354.403 403.944 353.616 403.749 352.956 403.358C352.3 402.964 351.793 402.41 351.435 401.698C351.081 400.982 350.904 400.142 350.904 399.181C350.904 398.231 351.081 397.394 351.435 396.669C351.793 395.945 352.292 395.379 352.932 394.973C353.576 394.566 354.329 394.363 355.19 394.363C355.713 394.363 356.22 394.45 356.711 394.623C357.202 394.796 357.643 395.067 358.033 395.438C358.424 395.808 358.732 396.289 358.957 396.881C359.182 397.468 359.295 398.182 359.295 399.024V399.664H351.924V398.311H357.526C357.526 397.836 357.43 397.416 357.237 397.05C357.043 396.679 356.772 396.388 356.422 396.174C356.075 395.961 355.669 395.854 355.202 395.854C354.695 395.854 354.252 395.979 353.874 396.229C353.5 396.474 353.21 396.796 353.005 397.194C352.803 397.589 352.703 398.017 352.703 398.48V399.537C352.703 400.157 352.811 400.684 353.029 401.118C353.25 401.553 353.558 401.885 353.952 402.115C354.347 402.34 354.808 402.453 355.335 402.453C355.677 402.453 355.989 402.404 356.271 402.308C356.552 402.207 356.796 402.058 357.001 401.861C357.206 401.664 357.363 401.42 357.472 401.131L359.18 401.438C359.044 401.941 358.798 402.382 358.444 402.76C358.094 403.135 357.653 403.427 357.122 403.636C356.595 403.841 355.993 403.944 355.317 403.944ZM363.996 403.962C363.409 403.962 362.878 403.853 362.403 403.636C361.928 403.414 361.551 403.095 361.274 402.676C361 402.257 360.863 401.744 360.863 401.137C360.863 400.613 360.964 400.183 361.165 399.845C361.366 399.507 361.638 399.239 361.98 399.042C362.322 398.845 362.705 398.696 363.127 398.595C363.55 398.494 363.98 398.418 364.419 398.366C364.974 398.301 365.425 398.249 365.771 398.209C366.117 398.164 366.369 398.094 366.526 397.997C366.683 397.901 366.761 397.744 366.761 397.526V397.484C366.761 396.957 366.612 396.548 366.315 396.259C366.021 395.969 365.582 395.824 364.999 395.824C364.391 395.824 363.912 395.959 363.562 396.229C363.216 396.494 362.976 396.79 362.843 397.116L361.147 396.73C361.348 396.166 361.642 395.711 362.028 395.365C362.419 395.015 362.867 394.762 363.375 394.605C363.882 394.444 364.415 394.363 364.974 394.363C365.345 394.363 365.737 394.407 366.152 394.496C366.57 394.58 366.961 394.737 367.323 394.967C367.689 395.196 367.989 395.524 368.222 395.951C368.456 396.373 368.572 396.923 368.572 397.599V403.757H366.81V402.489H366.737C366.62 402.722 366.445 402.952 366.212 403.177C365.979 403.402 365.679 403.59 365.312 403.738C364.946 403.887 364.508 403.962 363.996 403.962ZM364.389 402.513C364.888 402.513 365.314 402.414 365.669 402.217C366.027 402.02 366.298 401.762 366.484 401.444C366.673 401.122 366.767 400.778 366.767 400.412V399.217C366.703 399.281 366.578 399.342 366.393 399.398C366.212 399.45 366.005 399.497 365.771 399.537C365.538 399.573 365.31 399.607 365.089 399.639C364.868 399.668 364.683 399.692 364.534 399.712C364.184 399.756 363.864 399.831 363.574 399.935C363.288 400.04 363.059 400.191 362.886 400.388C362.717 400.581 362.632 400.839 362.632 401.161C362.632 401.607 362.797 401.946 363.127 402.175C363.457 402.4 363.878 402.513 364.389 402.513ZM374.883 403.944C373.985 403.944 373.212 403.74 372.564 403.334C371.92 402.923 371.425 402.358 371.079 401.638C370.733 400.917 370.56 400.092 370.56 399.162C370.56 398.221 370.737 397.39 371.091 396.669C371.445 395.945 371.945 395.379 372.588 394.973C373.232 394.566 373.991 394.363 374.864 394.363C375.569 394.363 376.197 394.494 376.748 394.756C377.299 395.013 377.744 395.375 378.082 395.842C378.424 396.309 378.627 396.854 378.692 397.478H376.935C376.838 397.044 376.617 396.669 376.271 396.355C375.929 396.041 375.47 395.884 374.895 395.884C374.391 395.884 373.951 396.017 373.572 396.283C373.198 396.544 372.906 396.919 372.697 397.406C372.488 397.889 372.383 398.46 372.383 399.12C372.383 399.796 372.486 400.38 372.691 400.871C372.896 401.362 373.186 401.742 373.56 402.012C373.939 402.282 374.383 402.416 374.895 402.416C375.237 402.416 375.547 402.354 375.824 402.229C376.106 402.1 376.341 401.917 376.531 401.68C376.724 401.442 376.859 401.157 376.935 400.823H378.692C378.627 401.422 378.432 401.958 378.106 402.428C377.78 402.899 377.344 403.27 376.796 403.539C376.253 403.809 375.615 403.944 374.883 403.944ZM384.951 394.484V395.933H379.886V394.484H384.951ZM381.244 392.262H383.049V401.034C383.049 401.384 383.101 401.648 383.206 401.825C383.311 401.998 383.445 402.117 383.61 402.181C383.779 402.241 383.963 402.272 384.16 402.272C384.305 402.272 384.431 402.261 384.54 402.241C384.649 402.221 384.733 402.205 384.794 402.193L385.12 403.684C385.015 403.724 384.866 403.765 384.673 403.805C384.48 403.849 384.238 403.873 383.948 403.877C383.474 403.885 383.031 403.801 382.62 403.624C382.21 403.447 381.878 403.173 381.624 402.803C381.371 402.432 381.244 401.968 381.244 401.408V392.262Z" fill="black" fill-opacity="0.8"/>
<path d="M345.082 427.088C344.448 427.088 343.888 426.975 343.401 426.751C342.918 426.523 342.541 426.21 342.27 425.813C342 425.413 341.866 424.958 341.869 424.447C341.866 424.047 341.944 423.677 342.104 423.339C342.264 422.997 342.483 422.713 342.76 422.485C343.04 422.254 343.352 422.108 343.697 422.046V421.991C343.244 421.874 342.884 421.62 342.617 421.229C342.349 420.835 342.217 420.387 342.22 419.886C342.217 419.406 342.338 418.976 342.584 418.598C342.831 418.219 343.169 417.921 343.6 417.702C344.034 417.484 344.528 417.374 345.082 417.374C345.63 417.374 346.119 417.484 346.55 417.702C346.981 417.921 347.319 418.219 347.565 418.598C347.815 418.976 347.941 419.406 347.944 419.886C347.941 420.387 347.804 420.835 347.533 421.229C347.265 421.62 346.91 421.874 346.467 421.991V422.046C346.808 422.108 347.116 422.254 347.39 422.485C347.664 422.713 347.882 422.997 348.046 423.339C348.209 423.677 348.292 424.047 348.295 424.447C348.292 424.958 348.153 425.413 347.879 425.813C347.609 426.21 347.232 426.523 346.748 426.751C346.268 426.975 345.713 427.088 345.082 427.088ZM345.082 426.072C345.51 426.072 345.879 426.003 346.19 425.864C346.501 425.726 346.741 425.53 346.91 425.278C347.079 425.025 347.165 424.73 347.168 424.391C347.165 424.034 347.073 423.719 346.891 423.445C346.71 423.171 346.462 422.956 346.148 422.799C345.837 422.642 345.482 422.563 345.082 422.563C344.679 422.563 344.319 422.642 344.002 422.799C343.688 422.956 343.44 423.171 343.258 423.445C343.08 423.719 342.992 424.034 342.995 424.391C342.992 424.73 343.074 425.025 343.24 425.278C343.409 425.53 343.651 425.726 343.965 425.864C344.279 426.003 344.651 426.072 345.082 426.072ZM345.082 421.585C345.42 421.585 345.72 421.517 345.982 421.382C346.247 421.246 346.454 421.057 346.605 420.814C346.756 420.571 346.833 420.286 346.836 419.96C346.833 419.64 346.758 419.361 346.61 419.124C346.462 418.884 346.257 418.699 345.996 418.57C345.734 418.438 345.43 418.372 345.082 418.372C344.728 418.372 344.419 418.438 344.154 418.57C343.889 418.699 343.685 418.884 343.54 419.124C343.395 419.361 343.324 419.64 343.328 419.96C343.324 420.286 343.397 420.571 343.545 420.814C343.695 421.057 343.903 421.246 344.168 421.382C344.432 421.517 344.737 421.585 345.082 421.585ZM353.259 427.088C352.649 427.088 352.106 426.983 351.629 426.774C351.155 426.564 350.778 426.273 350.498 425.901C350.221 425.526 350.07 425.09 350.046 424.595H351.209C351.234 424.899 351.338 425.162 351.523 425.384C351.708 425.603 351.949 425.772 352.248 425.892C352.546 426.012 352.877 426.072 353.24 426.072C353.647 426.072 354.007 426.001 354.321 425.86C354.634 425.718 354.881 425.521 355.059 425.269C355.238 425.016 355.327 424.724 355.327 424.391C355.327 424.044 355.241 423.737 355.068 423.473C354.896 423.205 354.644 422.996 354.311 422.845C353.979 422.694 353.573 422.619 353.093 422.619H352.335V421.603H353.093C353.468 421.603 353.797 421.535 354.08 421.4C354.367 421.265 354.59 421.074 354.75 420.828C354.913 420.581 354.995 420.292 354.995 419.96C354.995 419.64 354.924 419.361 354.782 419.124C354.641 418.887 354.441 418.702 354.182 418.57C353.927 418.438 353.625 418.372 353.277 418.372C352.951 418.372 352.643 418.432 352.354 418.552C352.068 418.669 351.834 418.839 351.652 419.064C351.471 419.286 351.372 419.553 351.357 419.867H350.249C350.267 419.372 350.417 418.938 350.697 418.565C350.977 418.19 351.343 417.898 351.795 417.688C352.251 417.479 352.751 417.374 353.296 417.374C353.88 417.374 354.382 417.493 354.801 417.73C355.219 417.964 355.541 418.273 355.765 418.658C355.99 419.043 356.102 419.458 356.102 419.904C356.102 420.437 355.962 420.891 355.682 421.266C355.405 421.642 355.028 421.902 354.551 422.046V422.12C355.148 422.219 355.615 422.473 355.95 422.882C356.286 423.288 356.453 423.791 356.453 424.391C356.453 424.905 356.313 425.367 356.033 425.776C355.756 426.183 355.378 426.503 354.898 426.737C354.417 426.971 353.871 427.088 353.259 427.088ZM363.161 425.186V424.687C363.161 424.342 363.232 424.027 363.373 423.741C363.518 423.451 363.727 423.22 364.001 423.048C364.278 422.873 364.614 422.785 365.008 422.785C365.408 422.785 365.743 422.873 366.014 423.048C366.285 423.22 366.49 423.451 366.628 423.741C366.767 424.027 366.836 424.342 366.836 424.687V425.186C366.836 425.53 366.765 425.847 366.623 426.137C366.485 426.423 366.279 426.654 366.005 426.829C365.734 427.001 365.402 427.088 365.008 427.088C364.608 427.088 364.271 427.001 363.997 426.829C363.723 426.654 363.515 426.423 363.373 426.137C363.232 425.847 363.161 425.53 363.161 425.186ZM364.103 424.687V425.186C364.103 425.472 364.171 425.729 364.306 425.956C364.441 426.181 364.675 426.293 365.008 426.293C365.331 426.293 365.559 426.181 365.691 425.956C365.826 425.729 365.894 425.472 365.894 425.186V424.687C365.894 424.401 365.829 424.145 365.7 423.921C365.571 423.693 365.34 423.579 365.008 423.579C364.685 423.579 364.452 423.693 364.311 423.921C364.172 424.145 364.103 424.401 364.103 424.687ZM358.452 419.775V419.276C358.452 418.932 358.523 418.616 358.665 418.33C358.809 418.041 359.019 417.81 359.292 417.638C359.569 417.462 359.905 417.374 360.299 417.374C360.699 417.374 361.034 417.462 361.305 417.638C361.576 417.81 361.781 418.041 361.919 418.33C362.058 418.616 362.127 418.932 362.127 419.276V419.775C362.127 420.12 362.056 420.437 361.915 420.726C361.776 421.012 361.57 421.243 361.296 421.418C361.025 421.591 360.693 421.677 360.299 421.677C359.899 421.677 359.562 421.591 359.288 421.418C359.014 421.243 358.806 421.012 358.665 420.726C358.523 420.437 358.452 420.12 358.452 419.775ZM359.394 419.276V419.775C359.394 420.061 359.462 420.318 359.597 420.546C359.733 420.771 359.966 420.883 360.299 420.883C360.622 420.883 360.85 420.771 360.982 420.546C361.118 420.318 361.185 420.061 361.185 419.775V419.276C361.185 418.99 361.121 418.735 360.991 418.51C360.862 418.282 360.631 418.168 360.299 418.168C359.976 418.168 359.743 418.282 359.602 418.51C359.463 418.735 359.394 418.99 359.394 419.276ZM358.803 426.958L365.303 417.504H366.356L359.856 426.958H358.803Z" fill="black" fill-opacity="0.6"/>
<path fill-rule="evenodd" clip-rule="evenodd" d="M371.147 9.02692C370.977 8.83304 370.997 8.53835 371.191 8.36871L376.191 4.01511C376.368 3.86122 376.632 3.86122 376.809 4.01511L381.809 8.36871C382.004 8.53835 382.023 8.83304 381.853 9.02691C381.682 9.22079 381.386 9.24044 381.191 9.0708L376.969 5.39412L376.969 14.3172C376.969 14.5749 376.759 14.7837 376.5 14.7837C376.241 14.7837 376.031 14.5749 376.031 14.3172L376.031 5.39412L371.809 9.0708C371.614 9.24044 371.318 9.22079 371.147 9.02692Z" fill="#6CF24A"/>
<rect x="228" y="135.414" width="8" height="233.934" rx="4" fill="#C0BBD2"/>
<rect x="228" y="209.402" width="8" height="159.946" rx="4" fill="#443D5E"/>
<ellipse cx="232" cy="209.402" rx="9" ry="9.79258" fill="#443D5E"/>
<path d="M215.007 425.999C214.373 425.999 213.813 425.887 213.327 425.662C212.844 425.435 212.467 425.122 212.196 424.725C211.925 424.325 211.791 423.87 211.794 423.359C211.791 422.959 211.869 422.589 212.029 422.251C212.19 421.909 212.408 421.624 212.685 421.397C212.965 421.166 213.277 421.02 213.622 420.958V420.903C213.17 420.786 212.81 420.532 212.542 420.141C212.274 419.747 212.142 419.299 212.145 418.798C212.142 418.318 212.263 417.888 212.51 417.51C212.756 417.131 213.094 416.833 213.525 416.614C213.959 416.396 214.453 416.286 215.007 416.286C215.555 416.286 216.044 416.396 216.475 416.614C216.906 416.833 217.245 417.131 217.491 417.51C217.74 417.888 217.866 418.318 217.869 418.798C217.866 419.299 217.729 419.747 217.458 420.141C217.191 420.532 216.835 420.786 216.392 420.903V420.958C216.734 421.02 217.041 421.166 217.315 421.397C217.589 421.624 217.808 421.909 217.971 422.251C218.134 422.589 218.217 422.959 218.22 423.359C218.217 423.87 218.079 424.325 217.805 424.725C217.534 425.122 217.157 425.435 216.674 425.662C216.194 425.887 215.638 425.999 215.007 425.999ZM215.007 424.984C215.435 424.984 215.804 424.915 216.115 424.776C216.426 424.638 216.666 424.442 216.835 424.19C217.004 423.937 217.091 423.642 217.094 423.303C217.091 422.946 216.998 422.631 216.817 422.357C216.635 422.083 216.387 421.868 216.074 421.711C215.763 421.554 215.407 421.475 215.007 421.475C214.604 421.475 214.244 421.554 213.927 421.711C213.613 421.868 213.365 422.083 213.184 422.357C213.005 422.631 212.917 422.946 212.92 423.303C212.917 423.642 212.999 423.937 213.165 424.19C213.334 424.442 213.576 424.638 213.89 424.776C214.204 424.915 214.576 424.984 215.007 424.984ZM215.007 420.497C215.346 420.497 215.646 420.429 215.907 420.293C216.172 420.158 216.38 419.969 216.531 419.726C216.681 419.482 216.758 419.198 216.761 418.872C216.758 418.551 216.683 418.273 216.535 418.036C216.387 417.796 216.183 417.611 215.921 417.482C215.66 417.35 215.355 417.283 215.007 417.283C214.653 417.283 214.344 417.35 214.079 417.482C213.815 417.611 213.61 417.796 213.465 418.036C213.321 418.273 213.25 418.551 213.253 418.872C213.25 419.198 213.322 419.482 213.47 419.726C213.621 419.969 213.828 420.158 214.093 420.293C214.358 420.429 214.662 420.497 215.007 420.497ZM223.073 425.999C222.378 425.999 221.785 425.81 221.296 425.432C220.807 425.05 220.433 424.497 220.174 423.774C219.916 423.048 219.786 422.171 219.786 421.143C219.786 420.121 219.916 419.249 220.174 418.525C220.436 417.799 220.811 417.245 221.301 416.863C221.793 416.479 222.384 416.286 223.073 416.286C223.763 416.286 224.352 416.479 224.841 416.863C225.334 417.245 225.709 417.799 225.968 418.525C226.229 419.249 226.36 420.121 226.36 421.143C226.36 422.171 226.231 423.048 225.972 423.774C225.714 424.497 225.34 425.05 224.851 425.432C224.361 425.81 223.769 425.999 223.073 425.999ZM223.073 424.984C223.763 424.984 224.298 424.651 224.68 423.987C225.061 423.322 225.252 422.374 225.252 421.143C225.252 420.324 225.165 419.627 224.989 419.052C224.817 418.476 224.567 418.037 224.241 417.736C223.918 417.434 223.529 417.283 223.073 417.283C222.39 417.283 221.856 417.62 221.471 418.294C221.087 418.965 220.894 419.915 220.894 421.143C220.894 421.961 220.98 422.657 221.153 423.229C221.325 423.802 221.573 424.237 221.896 424.536C222.222 424.834 222.615 424.984 223.073 424.984ZM232.934 424.097V423.599C232.934 423.254 233.005 422.939 233.146 422.652C233.291 422.363 233.5 422.132 233.774 421.96C234.051 421.785 234.387 421.697 234.781 421.697C235.181 421.697 235.516 421.785 235.787 421.96C236.058 422.132 236.263 422.363 236.401 422.652C236.54 422.939 236.609 423.254 236.609 423.599V424.097C236.609 424.442 236.538 424.759 236.396 425.048C236.258 425.335 236.052 425.565 235.778 425.741C235.507 425.913 235.175 425.999 234.781 425.999C234.381 425.999 234.044 425.913 233.77 425.741C233.496 425.565 233.288 425.335 233.146 425.048C233.005 424.759 232.934 424.442 232.934 424.097ZM233.876 423.599V424.097C233.876 424.384 233.944 424.641 234.079 424.868C234.214 425.093 234.448 425.205 234.781 425.205C235.104 425.205 235.332 425.093 235.464 424.868C235.599 424.641 235.667 424.384 235.667 424.097V423.599C235.667 423.313 235.602 423.057 235.473 422.832C235.344 422.605 235.113 422.491 234.781 422.491C234.457 422.491 234.225 422.605 234.084 422.832C233.945 423.057 233.876 423.313 233.876 423.599ZM228.225 418.687V418.188C228.225 417.844 228.296 417.528 228.438 417.242C228.582 416.953 228.792 416.722 229.065 416.549C229.342 416.374 229.678 416.286 230.072 416.286C230.472 416.286 230.807 416.374 231.078 416.549C231.349 416.722 231.554 416.953 231.692 417.242C231.831 417.528 231.9 417.844 231.9 418.188V418.687C231.9 419.032 231.829 419.349 231.688 419.638C231.549 419.924 231.343 420.155 231.069 420.33C230.798 420.503 230.466 420.589 230.072 420.589C229.672 420.589 229.335 420.503 229.061 420.33C228.787 420.155 228.579 419.924 228.438 419.638C228.296 419.349 228.225 419.032 228.225 418.687ZM229.167 418.188V418.687C229.167 418.973 229.235 419.23 229.37 419.458C229.506 419.682 229.739 419.795 230.072 419.795C230.395 419.795 230.623 419.682 230.755 419.458C230.89 419.23 230.958 418.973 230.958 418.687V418.188C230.958 417.902 230.894 417.647 230.764 417.422C230.635 417.194 230.404 417.08 230.072 417.08C229.749 417.08 229.516 417.194 229.375 417.422C229.236 417.647 229.167 417.902 229.167 418.188ZM228.576 425.87L235.076 416.416H236.129L229.629 425.87H228.576Z" fill="black" fill-opacity="0.6"/>
<path fill-rule="evenodd" clip-rule="evenodd" d="M241.147 8.14874C240.977 7.95486 240.997 7.66017 241.191 7.49053L246.191 3.13693C246.368 2.98305 246.632 2.98305 246.809 3.13693L251.809 7.49053C252.004 7.66017 252.023 7.95486 251.853 8.14874C251.682 8.34262 251.386 8.36226 251.191 8.19262L246.969 4.51594L246.969 13.4391C246.969 13.6967 246.759 13.9055 246.5 13.9055C246.241 13.9055 246.031 13.6967 246.031 13.4391L246.031 4.51594L241.809 8.19262C241.614 8.36226 241.318 8.34262 241.147 8.14874Z" fill="#6CF24A"/>
<path d="M222.7 394.641C222.636 394.069 222.37 393.627 221.903 393.313C221.436 392.995 220.849 392.836 220.141 392.836C219.633 392.836 219.195 392.916 218.824 393.077C218.454 393.234 218.166 393.452 217.961 393.729C217.76 394.003 217.659 394.315 217.659 394.665C217.659 394.959 217.728 395.212 217.865 395.426C218.005 395.639 218.189 395.818 218.414 395.963C218.643 396.104 218.889 396.223 219.15 396.319C219.412 396.412 219.664 396.488 219.905 396.548L221.112 396.862C221.507 396.959 221.911 397.09 222.326 397.255C222.74 397.42 223.125 397.637 223.479 397.907C223.833 398.176 224.119 398.51 224.336 398.909C224.558 399.307 224.668 399.784 224.668 400.34C224.668 401.04 224.487 401.662 224.125 402.205C223.767 402.748 223.246 403.177 222.561 403.491C221.881 403.805 221.058 403.962 220.092 403.962C219.167 403.962 218.366 403.815 217.69 403.521C217.013 403.227 216.484 402.811 216.102 402.272C215.719 401.728 215.508 401.084 215.468 400.34H217.339C217.376 400.786 217.521 401.159 217.774 401.457C218.032 401.75 218.36 401.97 218.758 402.115C219.161 402.255 219.601 402.326 220.08 402.326C220.607 402.326 221.076 402.243 221.487 402.078C221.901 401.909 222.227 401.676 222.465 401.378C222.702 401.076 222.821 400.724 222.821 400.322C222.821 399.955 222.716 399.656 222.507 399.422C222.302 399.189 222.022 398.995 221.668 398.843C221.318 398.69 220.921 398.555 220.479 398.438L219.018 398.04C218.028 397.77 217.243 397.374 216.663 396.85C216.088 396.327 215.8 395.635 215.8 394.774C215.8 394.061 215.993 393.439 216.38 392.908C216.766 392.377 217.289 391.964 217.949 391.671C218.609 391.373 219.354 391.224 220.183 391.224C221.02 391.224 221.758 391.371 222.398 391.665C223.042 391.958 223.549 392.363 223.92 392.878C224.29 393.389 224.483 393.977 224.499 394.641H222.7ZM228.763 403.757L226.034 394.484H227.9L229.717 401.294H229.807L231.63 394.484H233.496L235.307 401.263H235.397L237.202 394.484H239.068L236.345 403.757H234.504L232.62 397.062H232.482L230.598 403.757H228.763ZM240.781 403.757V394.484H242.586V403.757H240.781ZM241.692 393.053C241.378 393.053 241.109 392.948 240.883 392.739C240.662 392.526 240.551 392.272 240.551 391.979C240.551 391.681 240.662 391.427 240.883 391.218C241.109 391.005 241.378 390.898 241.692 390.898C242.006 390.898 242.274 391.005 242.495 391.218C242.721 391.427 242.833 391.681 242.833 391.979C242.833 392.272 242.721 392.526 242.495 392.739C242.274 392.948 242.006 393.053 241.692 393.053ZM249.427 394.484V395.933H244.187V394.484H249.427ZM245.624 403.757V393.409C245.624 392.83 245.751 392.349 246.004 391.966C246.258 391.58 246.594 391.292 247.012 391.103C247.431 390.91 247.886 390.813 248.377 390.813C248.739 390.813 249.049 390.844 249.306 390.904C249.564 390.96 249.755 391.013 249.88 391.061L249.457 392.522C249.373 392.498 249.264 392.47 249.131 392.437C248.999 392.401 248.838 392.383 248.648 392.383C248.21 392.383 247.896 392.492 247.707 392.709C247.522 392.926 247.429 393.24 247.429 393.651V403.757H245.624ZM255.618 394.484V395.933H250.553V394.484H255.618ZM251.911 392.262H253.716V401.034C253.716 401.384 253.769 401.648 253.873 401.825C253.978 401.998 254.113 402.117 254.278 402.181C254.447 402.241 254.63 402.272 254.827 402.272C254.972 402.272 255.099 402.261 255.208 402.241C255.316 402.221 255.401 402.205 255.461 402.193L255.787 403.684C255.682 403.724 255.534 403.765 255.34 403.805C255.147 403.849 254.906 403.873 254.616 403.877C254.141 403.885 253.698 403.801 253.288 403.624C252.877 403.447 252.545 403.173 252.292 402.803C252.038 402.432 251.911 401.968 251.911 401.408V392.262Z" fill="black" fill-opacity="0.8"/>
<rect x="118" y="135.414" width="8" height="233.934" rx="4" fill="#C0BBD2"/>
<rect x="118" y="171.32" width="8" height="198.028" rx="4" fill="#443D5E"/>
<ellipse cx="122" cy="172.408" rx="9" ry="9.79258" fill="#443D5E"/>
<path d="M104.989 415.198C105.376 415.201 105.764 415.275 106.152 415.42C106.54 415.565 106.894 415.805 107.214 416.14C107.534 416.473 107.791 416.927 107.985 417.502C108.179 418.078 108.276 418.799 108.276 419.667C108.276 420.507 108.196 421.254 108.036 421.906C107.879 422.556 107.651 423.103 107.352 423.55C107.057 423.996 106.697 424.334 106.272 424.565C105.85 424.796 105.373 424.911 104.841 424.911C104.312 424.911 103.839 424.807 103.424 424.598C103.011 424.385 102.673 424.091 102.408 423.716C102.146 423.337 101.979 422.899 101.905 422.4H103.031C103.133 422.834 103.334 423.193 103.636 423.476C103.941 423.756 104.342 423.896 104.841 423.896C105.57 423.896 106.146 423.577 106.567 422.94C106.992 422.303 107.205 421.403 107.205 420.24H107.131C106.958 420.498 106.754 420.721 106.517 420.909C106.28 421.097 106.017 421.241 105.727 421.343C105.438 421.445 105.13 421.495 104.804 421.495C104.262 421.495 103.765 421.361 103.313 421.094C102.864 420.823 102.503 420.452 102.233 419.981C101.965 419.507 101.831 418.965 101.831 418.356C101.831 417.777 101.96 417.248 102.219 416.768C102.48 416.285 102.847 415.9 103.317 415.614C103.791 415.328 104.348 415.189 104.989 415.198ZM104.989 416.214C104.601 416.214 104.252 416.311 103.941 416.505C103.633 416.696 103.388 416.954 103.207 417.28C103.028 417.604 102.939 417.962 102.939 418.356C102.939 418.75 103.025 419.109 103.197 419.432C103.373 419.752 103.611 420.007 103.913 420.198C104.218 420.386 104.564 420.48 104.952 420.48C105.244 420.48 105.516 420.423 105.769 420.309C106.021 420.192 106.241 420.033 106.429 419.833C106.62 419.63 106.769 419.401 106.877 419.146C106.984 418.887 107.038 418.618 107.038 418.338C107.038 417.968 106.949 417.622 106.771 417.299C106.595 416.976 106.352 416.714 106.041 416.514C105.733 416.314 105.383 416.214 104.989 416.214ZM113.175 424.911C112.479 424.911 111.887 424.722 111.397 424.344C110.908 423.962 110.534 423.41 110.276 422.686C110.017 421.96 109.888 421.083 109.888 420.055C109.888 419.033 110.017 418.161 110.276 417.437C110.537 416.711 110.913 416.157 111.402 415.775C111.895 415.391 112.485 415.198 113.175 415.198C113.864 415.198 114.454 415.391 114.943 415.775C115.435 416.157 115.811 416.711 116.069 417.437C116.331 418.161 116.462 419.033 116.462 420.055C116.462 421.083 116.332 421.96 116.074 422.686C115.815 423.41 115.441 423.962 114.952 424.344C114.463 424.722 113.87 424.911 113.175 424.911ZM113.175 423.896C113.864 423.896 114.4 423.563 114.781 422.899C115.163 422.234 115.354 421.286 115.354 420.055C115.354 419.236 115.266 418.539 115.091 417.964C114.918 417.388 114.669 416.95 114.343 416.648C114.02 416.346 113.63 416.196 113.175 416.196C112.492 416.196 111.958 416.533 111.573 417.207C111.188 417.878 110.996 418.827 110.996 420.055C110.996 420.874 111.082 421.569 111.254 422.142C111.427 422.714 111.674 423.15 111.998 423.448C112.324 423.747 112.716 423.896 113.175 423.896ZM123.036 423.009V422.511C123.036 422.166 123.106 421.851 123.248 421.565C123.393 421.275 123.602 421.044 123.876 420.872C124.153 420.697 124.488 420.609 124.882 420.609C125.282 420.609 125.618 420.697 125.889 420.872C126.159 421.044 126.364 421.275 126.503 421.565C126.641 421.851 126.71 422.166 126.71 422.511V423.009C126.71 423.354 126.64 423.671 126.498 423.96C126.359 424.247 126.153 424.478 125.879 424.653C125.609 424.825 125.276 424.911 124.882 424.911C124.482 424.911 124.145 424.825 123.871 424.653C123.597 424.478 123.39 424.247 123.248 423.96C123.106 423.671 123.036 423.354 123.036 423.009ZM123.977 422.511V423.009C123.977 423.296 124.045 423.553 124.18 423.78C124.316 424.005 124.55 424.117 124.882 424.117C125.205 424.117 125.433 424.005 125.565 423.78C125.701 423.553 125.769 423.296 125.769 423.009V422.511C125.769 422.225 125.704 421.969 125.575 421.745C125.445 421.517 125.215 421.403 124.882 421.403C124.559 421.403 124.327 421.517 124.185 421.745C124.047 421.969 123.977 422.225 123.977 422.511ZM118.327 417.599V417.1C118.327 416.756 118.398 416.44 118.539 416.154C118.684 415.865 118.893 415.634 119.167 415.462C119.444 415.286 119.779 415.198 120.173 415.198C120.573 415.198 120.909 415.286 121.18 415.462C121.451 415.634 121.655 415.865 121.794 416.154C121.932 416.44 122.002 416.756 122.002 417.1V417.599C122.002 417.944 121.931 418.261 121.789 418.55C121.651 418.836 121.444 419.067 121.171 419.242C120.9 419.415 120.567 419.501 120.173 419.501C119.773 419.501 119.436 419.415 119.162 419.242C118.888 419.067 118.681 418.836 118.539 418.55C118.398 418.261 118.327 417.944 118.327 417.599ZM119.269 417.1V417.599C119.269 417.885 119.336 418.142 119.472 418.37C119.607 418.595 119.841 418.707 120.173 418.707C120.497 418.707 120.724 418.595 120.857 418.37C120.992 418.142 121.06 417.885 121.06 417.599V417.1C121.06 416.814 120.995 416.559 120.866 416.334C120.737 416.106 120.506 415.992 120.173 415.992C119.85 415.992 119.618 416.106 119.476 416.334C119.338 416.559 119.269 416.814 119.269 417.1ZM118.678 424.782L125.178 415.328H126.23L119.73 424.782H118.678Z" fill="black" fill-opacity="0.6"/>
<path fill-rule="evenodd" clip-rule="evenodd" d="M131.147 7.27081C130.977 7.07694 130.997 6.78224 131.191 6.6126L136.191 2.259C136.368 2.10512 136.632 2.10512 136.809 2.259L141.809 6.6126C142.004 6.78224 142.023 7.07693 141.853 7.27081C141.682 7.46469 141.386 7.48433 141.191 7.31469L136.969 3.63801L136.969 12.5611C136.969 12.8187 136.759 13.0276 136.5 13.0276C136.241 13.0276 136.031 12.8187 136.031 12.5611L136.031 3.63801L131.809 7.31469C131.614 7.48433 131.318 7.46469 131.147 7.27081Z" fill="#443D5E"/>
<path d="M103.224 390.305V402.669H101.358V390.305H103.224ZM109.701 402.856C108.832 402.856 108.073 402.657 107.425 402.258C106.777 401.86 106.274 401.302 105.916 400.586C105.558 399.87 105.379 399.032 105.379 398.075C105.379 397.113 105.558 396.272 105.916 395.551C106.274 394.831 106.777 394.271 107.425 393.873C108.073 393.474 108.832 393.275 109.701 393.275C110.571 393.275 111.329 393.474 111.977 393.873C112.625 394.271 113.128 394.831 113.487 395.551C113.845 396.272 114.024 397.113 114.024 398.075C114.024 399.032 113.845 399.87 113.487 400.586C113.128 401.302 112.625 401.86 111.977 402.258C111.329 402.657 110.571 402.856 109.701 402.856ZM109.707 401.341C110.271 401.341 110.738 401.192 111.108 400.894C111.478 400.596 111.752 400.2 111.929 399.705C112.11 399.21 112.201 398.664 112.201 398.069C112.201 397.477 112.11 396.934 111.929 396.439C111.752 395.94 111.478 395.539 111.108 395.237C110.738 394.935 110.271 394.784 109.707 394.784C109.14 394.784 108.669 394.935 108.295 395.237C107.924 395.539 107.649 395.94 107.468 396.439C107.291 396.934 107.202 397.477 107.202 398.069C107.202 398.664 107.291 399.21 107.468 399.705C107.649 400.2 107.924 400.596 108.295 400.894C108.669 401.192 109.14 401.341 109.707 401.341ZM117.844 397.163V402.669H116.039V393.396H117.771V394.905H117.886C118.099 394.414 118.433 394.02 118.888 393.722C119.347 393.424 119.924 393.275 120.621 393.275C121.253 393.275 121.806 393.408 122.281 393.674C122.756 393.935 123.124 394.326 123.386 394.845C123.647 395.364 123.778 396.006 123.778 396.771V402.669H121.973V396.988C121.973 396.316 121.798 395.791 121.448 395.412C121.098 395.03 120.617 394.839 120.005 394.839C119.586 394.839 119.214 394.929 118.888 395.11C118.566 395.292 118.311 395.557 118.121 395.907C117.936 396.253 117.844 396.672 117.844 397.163ZM126.199 402.669V393.396H128.004V402.669H126.199ZM127.11 391.965C126.796 391.965 126.527 391.861 126.301 391.651C126.08 391.438 125.969 391.184 125.969 390.891C125.969 390.593 126.08 390.339 126.301 390.13C126.527 389.917 126.796 389.81 127.11 389.81C127.424 389.81 127.692 389.917 127.913 390.13C128.139 390.339 128.251 390.593 128.251 390.891C128.251 391.184 128.139 391.438 127.913 391.651C127.692 391.861 127.424 391.965 127.11 391.965ZM134.338 402.856C133.441 402.856 132.668 402.653 132.02 402.246C131.376 401.836 130.881 401.27 130.535 400.55C130.189 399.829 130.016 399.004 130.016 398.075C130.016 397.133 130.193 396.302 130.547 395.581C130.901 394.857 131.4 394.291 132.044 393.885C132.688 393.478 133.447 393.275 134.32 393.275C135.024 393.275 135.652 393.406 136.203 393.668C136.755 393.925 137.2 394.287 137.538 394.754C137.88 395.221 138.083 395.766 138.147 396.39H136.391C136.294 395.956 136.073 395.581 135.727 395.267C135.384 394.954 134.926 394.797 134.35 394.797C133.847 394.797 133.406 394.929 133.028 395.195C132.654 395.457 132.362 395.831 132.153 396.318C131.943 396.801 131.839 397.372 131.839 398.032C131.839 398.708 131.941 399.292 132.147 399.783C132.352 400.274 132.642 400.654 133.016 400.924C133.394 401.194 133.839 401.329 134.35 401.329C134.692 401.329 135.002 401.266 135.28 401.141C135.562 401.013 135.797 400.829 135.986 400.592C136.179 400.355 136.314 400.069 136.391 399.735H138.147C138.083 400.334 137.888 400.87 137.562 401.341C137.236 401.811 136.799 402.182 136.252 402.451C135.708 402.721 135.071 402.856 134.338 402.856Z" fill="black" fill-opacity="0.8"/>
<defs>
<filter id="filter0_b_204_2" x="36" y="77.715" width="584" height="410.263" filterUnits="userSpaceOnUse" color-interpolation-filters="sRGB">
<feFlood flood-opacity="0" result="BackgroundImageFix"/>
<feGaussianBlur in="BackgroundImageFix" stdDeviation="5.5"/>
<feComposite in2="SourceAlpha" operator="in" result="effect1_backgroundBlur_204_2"/>
<feBlend mode="normal" in="SourceGraphic" in2="effect1_backgroundBlur_204_2" result="shape"/>
</filter>
<linearGradient id="paint0_linear_204_2" x1="62.5" y1="89.7149" x2="634.429" y2="431.79" gradientUnits="userSpaceOnUse">
<stop stop-color="white" stop-opacity="0.6"/>
<stop offset="1" stop-color="white" stop-opacity="0.1"/>
</linearGradient>
</defs>
</svg>
